<svg xmlns="http://www.w3.org/2000/svg" xmlns:xlink="http://www.w3.org/1999/xlink" id="Layer_1" x="0px" y="0px" viewBox="0 0 277 60" style="enable-background:new 0 0 277 60;" xml:space="preserve"><style type="text/css">	.st0{fill:#6768AB;}	.st1{fill:#FFFFFF;}	.st2{fill:#2F2D3B;}</style><circle class="st0" cx="30" cy="30" r="25"></circle><rect x="28" y="21" class="st1" width="12" height="4"></rect><rect x="28" y="29" class="st1" width="12" height="4"></rect><rect x="28" y="37" class="st1" width="12" height="4"></rect><rect x="20" y="21" class="st1" width="4" height="20"></rect><g>	<path class="st2" d="M69.9,41.9c-1.6-1.2-2.4-2.8-2.4-4.7v-0.5c0-0.3,0.2-0.5,0.5-0.5h3.4c0.3,0,0.5,0.2,0.5,0.5V37  c0,0.9,0.4,1.6,1.2,2.3c0.8,0.6,1.9,1,3.1,1c1.2,0,2.2-0.3,3-0.9c0.8-0.6,1.1-1.4,1.1-2.3c0-0.7-0.2-1.3-0.6-1.7  c-0.4-0.4-1-0.8-1.6-1.1c-0.6-0.3-1.5-0.6-2.8-1c-1.5-0.5-2.8-1-3.8-1.5c-1-0.5-1.9-1.3-2.7-2.3c-0.7-1-1.1-2.2-1.1-3.7  c0-2.1,0.8-3.8,2.3-5.1c1.5-1.2,3.5-1.9,6.1-1.9c2.6,0,4.6,0.6,6.2,1.9c1.6,1.3,2.3,3,2.3,5v0.1c0,0.3-0.2,0.5-0.5,0.5h-3.4  c-0.3,0-0.5-0.2-0.5-0.5v-0.2c0-0.9-0.4-1.7-1.2-2.3s-1.8-0.9-3-0.9c-1.2,0-2.1,0.3-2.9,0.9c-0.7,0.6-1.1,1.3-1.1,2.2  c0,0.7,0.2,1.2,0.6,1.7c0.4,0.4,0.9,0.8,1.6,1.1c0.6,0.3,1.5,0.6,2.8,1.1c1.6,0.5,2.9,1.1,4,1.6c1,0.5,1.9,1.2,2.7,2.2  c0.8,1,1.2,2.2,1.2,3.7c0,2.1-0.8,3.8-2.4,5.1c-1.6,1.2-3.7,1.9-6.3,1.9C73.6,43.7,71.5,43.1,69.9,41.9z"></path>	<path class="st2" d="M100.6,39c0.8-0.5,1.3-1.3,1.7-2.2c0.1-0.3,0.3-0.4,0.6-0.3l3.3,0.7c0.3,0.1,0.4,0.3,0.3,0.6  c-0.6,1.9-1.7,3.4-3.2,4.4c-1.5,1.1-3.3,1.6-5.5,1.6c-2.5,0-4.5-0.6-6-1.9c-1.5-1.2-2.5-3-2.9-5.1c-0.2-0.9-0.3-1.8-0.3-2.9  c0-1-0.1-2.3-0.1-4c0-1.6,0.1-2.9,0.2-3.9c0.3-2.2,1.2-4,2.8-5.4c1.6-1.4,3.6-2,6-2c2.7,0,4.8,0.8,6.4,2.3c1.6,1.5,2.5,3.5,2.7,6  c0.1,1.1,0.1,3.1,0.1,6c0,0.3-0.2,0.5-0.5,0.5H93.2c-0.1,0-0.2,0.1-0.2,0.2c0,0.9,0,1.7,0.1,2.4c0.2,1.2,0.7,2.1,1.5,2.9  c0.8,0.7,1.9,1.1,3.2,1.1C98.9,39.8,99.8,39.6,100.6,39z M94.6,23.7c-0.8,0.7-1.3,1.7-1.4,2.9C93,27.4,93,28.4,93,29.4  c0,0.1,0.1,0.2,0.2,0.2h8.8c0.1,0,0.2-0.1,0.2-0.2c-0.1-1.3-0.1-2.2-0.2-2.8c-0.2-1.2-0.6-2.2-1.4-2.9c-0.8-0.8-1.8-1.1-3-1.1  C96.3,22.6,95.3,23,94.6,23.7z"></path>	<path class="st2" d="M115.9,43L109,19.5l0-0.1c0-0.3,0.2-0.4,0.5-0.4h4c0.3,0,0.5,0.1,0.5,0.4l4.4,17.2c0,0.1,0.1,0.1,0.1,0.1  c0,0,0.1,0,0.1-0.1l4.4-17.2c0.1-0.3,0.2-0.4,0.5-0.4l4,0c0.2,0,0.3,0,0.4,0.1c0.1,0.1,0.1,0.2,0.1,0.4L121.1,43  c-0.1,0.3-0.3,0.4-0.5,0.4h-4.1C116.2,43.4,116,43.3,115.9,43z"></path>	<path class="st2" d="M142.5,39c0.8-0.5,1.3-1.3,1.7-2.2c0.1-0.3,0.3-0.4,0.6-0.3l3.3,0.7c0.3,0.1,0.4,0.3,0.3,0.6  c-0.6,1.9-1.7,3.4-3.2,4.4c-1.5,1.1-3.3,1.6-5.5,1.6c-2.5,0-4.5-0.6-6-1.9c-1.5-1.2-2.5-3-2.9-5.1c-0.2-0.9-0.3-1.8-0.3-2.9  c0-1-0.1-2.3-0.1-4c0-1.6,0.1-2.9,0.2-3.9c0.3-2.2,1.2-4,2.8-5.4c1.6-1.4,3.6-2,6-2c2.7,0,4.8,0.8,6.4,2.3c1.6,1.5,2.5,3.5,2.7,6  c0.1,1.1,0.1,3.1,0.1,6c0,0.3-0.2,0.5-0.5,0.5h-13.2c-0.1,0-0.2,0.1-0.2,0.2c0,0.9,0,1.7,0.1,2.4c0.2,1.2,0.7,2.1,1.5,2.9  c0.8,0.7,1.9,1.1,3.2,1.1C140.8,39.8,141.8,39.6,142.5,39z M136.5,23.7c-0.8,0.7-1.3,1.7-1.4,2.9c-0.1,0.9-0.1,1.8-0.1,2.8  c0,0.1,0.1,0.2,0.2,0.2h8.8c0.1,0,0.2-0.1,0.2-0.2c-0.1-1.3-0.1-2.2-0.2-2.8c-0.2-1.2-0.6-2.2-1.4-2.9c-0.8-0.8-1.8-1.1-3-1.1  C138.3,22.6,137.3,23,136.5,23.7z"></path>	<path class="st2" d="M169.1,20.8c1.3,1.4,1.9,3.4,1.9,6V43c0,0.3-0.2,0.5-0.5,0.5h-3.6c-0.3,0-0.5-0.2-0.5-0.5V27.4  c0-1.5-0.4-2.6-1.1-3.5c-0.8-0.9-1.8-1.3-3-1.3c-1.3,0-2.4,0.4-3.1,1.3c-0.8,0.9-1.2,2.1-1.2,3.5V43c0,0.3-0.2,0.5-0.5,0.5h-3.6  c-0.3,0-0.5-0.2-0.5-0.5V19.5c0-0.3,0.2-0.5,0.5-0.5h3.6c0.3,0,0.5,0.2,0.5,0.5V21c0,0.1,0,0.2,0.1,0.2c0,0,0.1,0,0.2-0.1  c1.2-1.6,3.1-2.4,5.5-2.4C166,18.7,167.8,19.4,169.1,20.8z"></path></g><g>	<path class="st0" d="M186.5,42.6c-1.6-1.2-2.4-2.8-2.4-4.7v-0.5c0-0.3,0.2-0.5,0.5-0.5h3.4c0.3,0,0.5,0.2,0.5,0.5v0.3  c0,0.9,0.4,1.6,1.2,2.3c0.8,0.6,1.9,1,3.1,1c1.2,0,2.2-0.3,3-0.9c0.8-0.6,1.1-1.4,1.1-2.3c0-0.7-0.2-1.3-0.6-1.7  c-0.4-0.4-1-0.8-1.6-1.1c-0.6-0.3-1.5-0.6-2.8-1c-1.5-0.5-2.8-1-3.8-1.5c-1-0.5-1.9-1.3-2.7-2.3c-0.7-1-1.1-2.2-1.1-3.7  c0-2.1,0.8-3.8,2.3-5.1s3.5-1.9,6.1-1.9c2.6,0,4.6,0.6,6.2,1.9c1.6,1.3,2.3,3,2.3,5v0.1c0,0.3-0.2,0.5-0.5,0.5h-3.4  c-0.3,0-0.5-0.2-0.5-0.5v-0.2c0-0.9-0.4-1.7-1.2-2.3c-0.8-0.6-1.8-0.9-3-0.9c-1.2,0-2.1,0.3-2.9,0.9c-0.7,0.6-1.1,1.3-1.1,2.2  c0,0.7,0.2,1.2,0.6,1.7c0.4,0.4,0.9,0.8,1.6,1.1c0.6,0.3,1.5,0.6,2.8,1.1c1.6,0.5,2.9,1.1,4,1.6c1,0.5,1.9,1.2,2.7,2.2  c0.8,1,1.2,2.2,1.2,3.7c0,2.1-0.8,3.8-2.4,5.1c-1.6,1.2-3.7,1.9-6.3,1.9C190.2,44.5,188.1,43.8,186.5,42.6z"></path>	<path class="st0" d="M221.3,21.6c1.3,1.4,1.9,3.4,1.9,6v16.2c0,0.3-0.2,0.5-0.5,0.5h-3.6c-0.3,0-0.5-0.2-0.5-0.5V28.2  c0-1.5-0.4-2.6-1.1-3.5c-0.8-0.9-1.8-1.3-3-1.3c-1.3,0-2.4,0.4-3.1,1.3c-0.8,0.9-1.2,2.1-1.2,3.5v15.5c0,0.3-0.2,0.5-0.5,0.5H206  c-0.3,0-0.5-0.2-0.5-0.5V11c0-0.3,0.2-0.5,0.5-0.5h3.6c0.3,0,0.5,0.2,0.5,0.5v10.7c0,0.1,0,0.2,0.1,0.2c0,0,0.1,0,0.2-0.1  c1.2-1.6,3.1-2.4,5.5-2.4C218.2,19.4,220,20.1,221.3,21.6z"></path>	<path class="st0" d="M231,42.6c-1.6-1.3-2.6-3.1-2.9-5.3c-0.3-1.6-0.4-3.4-0.4-5.4c0-2,0.1-3.8,0.4-5.3c0.3-2.2,1.3-4,2.9-5.3  c1.6-1.3,3.6-2,6.1-2c2.5,0,4.5,0.7,6.1,2c1.6,1.3,2.6,3.1,2.9,5.2c0.3,1.4,0.4,3.2,0.4,5.4s-0.1,4-0.4,5.4c-0.3,2.2-1.3,4-2.9,5.3  s-3.6,1.9-6.1,1.9S232.6,43.9,231,42.6z M240.1,39.5c0.8-0.7,1.3-1.7,1.5-2.9c0.2-1.4,0.2-3,0.2-4.6c0-1.7-0.1-3.2-0.2-4.6  c-0.2-1.2-0.7-2.2-1.5-2.9c-0.8-0.7-1.8-1.1-3-1.1c-1.2,0-2.2,0.4-3,1.1c-0.8,0.7-1.3,1.7-1.5,2.9c-0.1,1.1-0.2,2.6-0.2,4.6  c0,2,0.1,3.5,0.2,4.6c0.2,1.2,0.7,2.2,1.5,2.9c0.8,0.7,1.8,1.1,3,1.1C238.3,40.6,239.3,40.2,240.1,39.5z"></path>	<path class="st0" d="M269.9,31.9c0,2-0.2,3.9-0.5,5.5c-1,4.8-3.6,7.2-7.8,7.2c-2.3,0-4.1-0.8-5.2-2.4c0-0.1-0.1-0.1-0.1-0.1  c-0.1,0-0.1,0.1-0.1,0.2v10.7c0,0.3-0.2,0.5-0.5,0.5h-3.6c-0.3,0-0.5-0.2-0.5-0.5V20.2c0-0.3,0.2-0.5,0.5-0.5h3.6  c0.3,0,0.5,0.2,0.5,0.5v1.5c0,0.1,0,0.1,0.1,0.1c0,0,0.1,0,0.2,0c1.2-1.7,3-2.5,5.4-2.5c2,0,3.6,0.6,4.8,1.7  c1.2,1.2,2.1,2.9,2.6,5.3C269.7,28.1,269.9,29.9,269.9,31.9z M265.2,32c0-2.3-0.2-4-0.6-5.3c-0.4-1.1-0.8-1.9-1.5-2.5  c-0.6-0.6-1.5-0.8-2.5-0.8c-1,0-1.8,0.3-2.4,0.8c-0.6,0.6-1.1,1.4-1.4,2.4c-0.4,1.3-0.6,3.1-0.6,5.4c0,2.4,0.2,4.2,0.6,5.5  c0.3,1,0.8,1.8,1.4,2.3c0.6,0.5,1.4,0.8,2.3,0.8c1.9,0,3.2-1,3.9-3C265,36.2,265.2,34.3,265.2,32z"></path></g></svg>